<?xml version="1.0" encoding="UTF-8"?>
<svg id="Layer_1" data-name="Layer 1" xmlns="http://www.w3.org/2000/svg" viewBox="0 0 1842.52 1842.52">
  <defs>
    <style>
      .cls-1 {
        fill: #21555d;
      }
    </style>
  </defs>
  <path class="cls-1" d="m563.77,861.83c-.12,1.71-.27,3.44-.42,5.16-.46,5.1-1.04,10.25-1.63,15.4-1.03,9.05-2.62,17.8-4.7,26.15-1.45,7.02-3.48,13.55-5.96,19.4-2.78,6.55-6.13,12.24-9.84,16.75-.45.56-.91,1.09-1.37,1.61-.61.68-1.22,1.32-1.84,1.93-1.77,1.75-3.61,3.24-5.49,4.43-1.71,1.1-3.46,1.95-5.23,2.55h0c-.14.04-.27.09-.4.13,0,0-.02,0-.03,0-5.1,1.95-11.08,3.16-17.56,3.46,0,0,0,0-.02,0-3.68.17-7.53.05-11.45-.4,0,0-1.13-.17-3.19-.44h-.04c-4.11-.53-8.16-1.48-12.05-2.88-17.71-6.39-54.12-30.64-74.65-71.54-22.15-44.14-41.5-45.33-41.5-45.33,0,0,.2,1.71.08,4.45-.93,28-7.77,75.38-40.02,111.78,38.36-7.32,71.14-8.66,84.9-8.87,3.09,3.36,6.97,6.97,11.79,10.6-122.89,5.49-198.18,41.52-232.41,62.76-.06.04-.12.07-.19.11-13.99,8.7-21.07,14.89-21.68,15.43h0c3.17-3.93,6.53-7.68,10.04-11.27.03-.03.06-.06.08-.08,6.04-6.08,12.83-11.89,20.32-17.42,18.12-13.37,40.32-25.04,65.8-34.73.09-.04.19-.07.28-.11,4.44-1.69,8.98-3.31,13.61-4.87.02,0,7.01-2.85,7.03-2.85.02,0,.03-.01.05-.02,2.81-1.58,5.56-3.13,8.38-4.71,46.52-38,54.79-96.79,55.59-128.43,0-.06,0-.12,0-.18.33-13.32-.67-21.79-.67-21.79,3.87,1.37,7.65,2.94,11.32,4.69,24.08,11.42,43.79,30.54,56.72,54.13,0,0,.01.01.01.02,1.31,2.39,2.55,4.83,3.71,7.3,10.15,18.96,22.31,34.31,38.27,48.67,1.88,1.7,3.86,3.28,5.85,4.84.96.77,1.94,1.52,2.93,2.25,4.33,3.22,8.81,6.2,13.44,8.89h0c.27.16.55.32.82.47.08.05.17.1.26.15,1.79,1.02,3.6,2.01,5.42,2.94,3.45,1.77,7.18,2.96,11.03,3.4h.08c.68.09,1.35.15,2.02.18,1.02.06,2.02.07,3.03.04,3.84-.11,7.59-.85,11.17-2.14.21-.07.41-.15.62-.23,9.08-3.45,17.06-10.43,22.63-19.7.4-.66.79-1.34,1.16-2.04,2.84-7.18,5.02-15.16,6.35-23.65-5.32,6.75-11.31,12.6-17.8,17.34-9.71,7.12-20.53,11.77-31.86,13.35-2.4.33-4.82.53-7.25.58-.28-.23-.56-.46-.84-.7t0,0c-4.1-3.44-7.54-7.21-10.18-11.18,5.34-.38,10.58-1.29,15.68-2.69,5.5-1.51,10.83-3.57,15.94-6.17,13.75-6.96,25.85-17.66,35.15-31.03.89-1.28,1.75-2.57,2.59-3.9,2.79-4.43,5.29-9.12,7.45-14.05.23-.52.45-1.06.68-1.59,3.45-8.23,5.98-17.08,7.4-26.39,1.49,9.46,1.36,19.6.59,30.01Z"/>
  <path class="cls-1" d="m756.03,851.29h-22.63l-48.38,97.51-23.73-97.51h-23.82l-35.57,139.94h25.12l22.33-87.9,21.31,87.9h20.06l41.54-83.71,1.14,83.71h24.54l-1.91-139.94Z"/>
  <path class="cls-1" d="m872.62,851.29h-22.16l-75.58,139.94h28.26l53.79-100.59,17.65,70.82,7.41,29.77h25.5l-34.87-139.94Z"/>
  <path class="cls-1" d="m1033.34,851.29l-13,95.14-50.46-95.14h-22.94l-18.92,139.94h25.21l13.14-96.17,51.14,96.17h22.44l19.03-139.94h-25.64Z"/>
  <path class="cls-1" d="m1072.93,851.29l-3.24,24.92h30.38l-15.72,115.02h26.09l15.72-115.02h29.16l3.05-24.92h-85.42Z"/>
  <path class="cls-1" d="m1242.69,851.29h-22.16l-75.59,139.94h28.26l53.79-100.59,25.09,100.59h25.47l-34.86-139.94Z"/>
  <path class="cls-1" d="m1391.95,905.52c3.96-6.47,5.95-13.47,5.95-21.03,0-6.9-1.69-12.98-5.05-18.21-3.37-5.23-7.75-9.04-13.15-11.42-5.4-2.38-14.34-3.57-26.86-3.57h-35.15l-18.92,139.94h14.11l8.96-66.2h11.08l42.14,66.2h15.9l-42.26-66.2c11.17,0,20.18-1.63,27.03-4.9,6.85-3.27,12.25-8.13,16.23-14.61Zm-52.19,5.81h-16.08l6.29-46.52h23.98c10.53,0,17.81,1.31,21.88,3.9,5.26,3.3,7.9,8.58,7.9,15.85,0,6.46-1.9,11.93-5.66,16.38-3.78,4.46-8.75,7.45-14.89,8.97-3.69.95-11.48,1.43-23.41,1.43Z"/>
  <path class="cls-1" d="m1486.23,880.65l17.26,51.61,4.42,13.22,15.3,45.75h14.37l-46.92-139.94h-3.24l-80.6,139.94h15.6"/>
  <path class="cls-1" d="m1656.7,851.29l-50.47,63.47-29.92-63.47h-14.68l36.36,77.16-8.5,62.78h13.7l8.5-62.16,61.99-77.78h-16.99Z"/>
</svg>